<svg width="16" height="17" viewBox="0 0 16 17" fill="none" xmlns="http://www.w3.org/2000/svg">
<path d="M10.2917 12.4583C10.1351 12.4583 9.98203 12.5048 9.85184 12.5917C9.72165 12.6787 9.62018 12.8024 9.56026 12.947C9.50034 13.0917 9.48467 13.2509 9.51521 13.4044C9.54576 13.558 9.62116 13.6991 9.73187 13.8098C9.84259 13.9205 9.98365 13.9959 10.1372 14.0265C10.2908 14.057 10.45 14.0413 10.5946 13.9814C10.7393 13.9215 10.8629 13.82 10.9499 13.6898C11.0369 13.5596 11.0833 13.4066 11.0833 13.25C11.0833 13.04 10.9999 12.8387 10.8515 12.6902C10.703 12.5417 10.5016 12.4583 10.2917 12.4583ZM5.54167 12.4583H3.16667C2.9567 12.4583 2.75534 12.5417 2.60687 12.6902C2.45841 12.8387 2.375 13.04 2.375 13.25C2.375 13.46 2.45841 13.6613 2.60687 13.8098C2.75534 13.9583 2.9567 14.0417 3.16667 14.0417H5.54167C5.75163 14.0417 5.95299 13.9583 6.10146 13.8098C6.24993 13.6613 6.33333 13.46 6.33333 13.25C6.33333 13.04 6.24993 12.8387 6.10146 12.6902C5.95299 12.5417 5.75163 12.4583 5.54167 12.4583ZM12.6667 12.4583C12.5101 12.4583 12.357 12.5048 12.2268 12.5917C12.0967 12.6787 11.9952 12.8024 11.9353 12.947C11.8753 13.0917 11.8597 13.2509 11.8902 13.4044C11.9208 13.558 11.9962 13.6991 12.1069 13.8098C12.2176 13.9205 12.3587 13.9959 12.5122 14.0265C12.6658 14.057 12.825 14.0413 12.9696 13.9814C13.1143 13.9215 13.2379 13.82 13.3249 13.6898C13.4119 13.5596 13.4583 13.4066 13.4583 13.25C13.4583 13.04 13.3749 12.8387 13.2265 12.6902C13.078 12.5417 12.8766 12.4583 12.6667 12.4583ZM10.2917 7.70833C10.1351 7.70833 9.98203 7.75476 9.85184 7.84175C9.72165 7.92874 9.62018 8.05238 9.56026 8.19704C9.50034 8.3417 9.48467 8.50087 9.51521 8.65444C9.54576 8.80801 9.62116 8.94907 9.73187 9.05979C9.84259 9.1705 9.98365 9.2459 10.1372 9.27645C10.2908 9.307 10.45 9.29132 10.5946 9.2314C10.7393 9.17148 10.8629 9.07001 10.9499 8.93982C11.0369 8.80963 11.0833 8.65657 11.0833 8.5C11.0833 8.29003 10.9999 8.08867 10.8515 7.9402C10.703 7.79174 10.5016 7.70833 10.2917 7.70833ZM5.54167 7.70833H3.16667C2.9567 7.70833 2.75534 7.79174 2.60687 7.9402C2.45841 8.08867 2.375 8.29003 2.375 8.5C2.375 8.70996 2.45841 8.91132 2.60687 9.05979C2.75534 9.20825 2.9567 9.29166 3.16667 9.29166H5.54167C5.75163 9.29166 5.95299 9.20825 6.10146 9.05979C6.24993 8.91132 6.33333 8.70996 6.33333 8.5C6.33333 8.29003 6.24993 8.08867 6.10146 7.9402C5.95299 7.79174 5.75163 7.70833 5.54167 7.70833ZM12.6667 2.95833C12.5101 2.95833 12.357 3.00476 12.2268 3.09175C12.0967 3.17874 11.9952 3.30238 11.9353 3.44704C11.8753 3.5917 11.8597 3.75087 11.8902 3.90444C11.9208 4.05801 11.9962 4.19907 12.1069 4.30979C12.2176 4.4205 12.3587 4.4959 12.5122 4.52645C12.6658 4.557 12.825 4.54132 12.9696 4.4814C13.1143 4.42148 13.2379 4.32001 13.3249 4.18982C13.4119 4.05963 13.4583 3.90657 13.4583 3.74999C13.4583 3.54003 13.3749 3.33867 13.2265 3.1902C13.078 3.04174 12.8766 2.95833 12.6667 2.95833ZM12.6667 7.70833C12.5101 7.70833 12.357 7.75476 12.2268 7.84175C12.0967 7.92874 11.9952 8.05238 11.9353 8.19704C11.8753 8.3417 11.8597 8.50087 11.8902 8.65444C11.9208 8.80801 11.9962 8.94907 12.1069 9.05979C12.2176 9.1705 12.3587 9.2459 12.5122 9.27645C12.6658 9.307 12.825 9.29132 12.9696 9.2314C13.1143 9.17148 13.2379 9.07001 13.3249 8.93982C13.4119 8.80963 13.4583 8.65657 13.4583 8.5C13.4583 8.29003 13.3749 8.08867 13.2265 7.9402C13.078 7.79174 12.8766 7.70833 12.6667 7.70833ZM15.8333 2.95833C15.8333 2.32844 15.5831 1.72435 15.1377 1.27895C14.6923 0.833551 14.0882 0.583328 13.4583 0.583328H2.375C1.74511 0.583328 1.14102 0.833551 0.695621 1.27895C0.250223 1.72435 0 2.32844 0 2.95833V4.54166C0.00349173 5.12754 0.223417 5.69145 0.6175 6.125C0.223417 6.55854 0.00349173 7.12245 0 7.70833V9.29166C0.00349173 9.87754 0.223417 10.4414 0.6175 10.875C0.223417 11.3085 0.00349173 11.8725 0 12.4583V14.0417C0 14.6716 0.250223 15.2756 0.695621 15.721C1.14102 16.1664 1.74511 16.4167 2.375 16.4167H13.4583C14.0882 16.4167 14.6923 16.1664 15.1377 15.721C15.5831 15.2756 15.8333 14.6716 15.8333 14.0417V12.4583C15.8298 11.8725 15.6099 11.3085 15.2158 10.875C15.6099 10.4414 15.8298 9.87754 15.8333 9.29166V7.70833C15.8298 7.12245 15.6099 6.55854 15.2158 6.125C15.6099 5.69145 15.8298 5.12754 15.8333 4.54166V2.95833ZM14.25 14.0417C14.25 14.2516 14.1666 14.453 14.0181 14.6015C13.8697 14.7499 13.6683 14.8333 13.4583 14.8333H2.375C2.16504 14.8333 1.96367 14.7499 1.81521 14.6015C1.66674 14.453 1.58333 14.2516 1.58333 14.0417V12.4583C1.58333 12.2484 1.66674 12.047 1.81521 11.8985C1.96367 11.7501 2.16504 11.6667 2.375 11.6667H13.4583C13.6683 11.6667 13.8697 11.7501 14.0181 11.8985C14.1666 12.047 14.25 12.2484 14.25 12.4583V14.0417ZM14.25 9.29166C14.25 9.50162 14.1666 9.70299 14.0181 9.85145C13.8697 9.99992 13.6683 10.0833 13.4583 10.0833H2.375C2.16504 10.0833 1.96367 9.99992 1.81521 9.85145C1.66674 9.70299 1.58333 9.50162 1.58333 9.29166V7.70833C1.58333 7.49837 1.66674 7.297 1.81521 7.14854C1.96367 7.00007 2.16504 6.91666 2.375 6.91666H13.4583C13.6683 6.91666 13.8697 7.00007 14.0181 7.14854C14.1666 7.297 14.25 7.49837 14.25 7.70833V9.29166ZM14.25 4.54166C14.25 4.75162 14.1666 4.95299 14.0181 5.10145C13.8697 5.24992 13.6683 5.33333 13.4583 5.33333H2.375C2.16504 5.33333 1.96367 5.24992 1.81521 5.10145C1.66674 4.95299 1.58333 4.75162 1.58333 4.54166V2.95833C1.58333 2.74837 1.66674 2.547 1.81521 2.39854C1.96367 2.25007 2.16504 2.16666 2.375 2.16666H13.4583C13.6683 2.16666 13.8697 2.25007 14.0181 2.39854C14.1666 2.547 14.25 2.74837 14.25 2.95833V4.54166ZM10.2917 2.95833C10.1351 2.95833 9.98203 3.00476 9.85184 3.09175C9.72165 3.17874 9.62018 3.30238 9.56026 3.44704C9.50034 3.5917 9.48467 3.75087 9.51521 3.90444C9.54576 4.05801 9.62116 4.19907 9.73187 4.30979C9.84259 4.4205 9.98365 4.4959 10.1372 4.52645C10.2908 4.557 10.45 4.54132 10.5946 4.4814C10.7393 4.42148 10.8629 4.32001 10.9499 4.18982C11.0369 4.05963 11.0833 3.90657 11.0833 3.74999C11.0833 3.54003 10.9999 3.33867 10.8515 3.1902C10.703 3.04174 10.5016 2.95833 10.2917 2.95833ZM5.54167 2.95833H3.16667C2.9567 2.95833 2.75534 3.04174 2.60687 3.1902C2.45841 3.33867 2.375 3.54003 2.375 3.74999C2.375 3.95996 2.45841 4.16132 2.60687 4.30979C2.75534 4.45825 2.9567 4.54166 3.16667 4.54166H5.54167C5.75163 4.54166 5.95299 4.45825 6.10146 4.30979C6.24993 4.16132 6.33333 3.95996 6.33333 3.74999C6.33333 3.54003 6.24993 3.33867 6.10146 3.1902C5.95299 3.04174 5.75163 2.95833 5.54167 2.95833Z" fill="black"/>
</svg>
