<svg width="11" height="11" viewBox="0 0 11 11" fill="none" xmlns="http://www.w3.org/2000/svg">
<path fill-rule="evenodd" clip-rule="evenodd" d="M0 5.5V3.3C0 1.7446 -3.27826e-08 0.96635 0.48345 0.48345C0.96635 -3.27826e-08 1.7446 0 3.3 0H7.7C9.2554 0 10.0337 -3.27826e-08 10.5166 0.48345C11 0.96635 11 1.7446 11 3.3V5.5C11 7.0554 11 7.83365 10.5166 8.31655C10.1613 8.6724 9.64645 8.76645 8.77965 8.7912C8.77782 8.37447 8.62835 7.97187 8.3578 7.6549C8.34192 7.63634 8.33229 7.61325 8.3303 7.5889C8.29699 7.17051 8.11571 6.77768 7.81898 6.48085C7.52225 6.18402 7.12948 6.0026 6.7111 5.96915C6.68675 5.96719 6.66364 5.95757 6.6451 5.94165C6.32566 5.66944 5.91969 5.51993 5.5 5.51993C5.08031 5.51993 4.67434 5.66944 4.3549 5.94165C4.33636 5.95757 4.31326 5.96719 4.2889 5.96915C3.87043 6.00248 3.47752 6.18384 3.18068 6.48068C2.88384 6.77752 2.70248 7.17043 2.66915 7.5889C2.6672 7.61325 2.65757 7.63636 2.64165 7.6549C2.3713 7.97195 2.22203 8.37454 2.22035 8.7912C1.35355 8.76645 0.83875 8.6724 0.48345 8.31655C-3.27826e-08 7.83365 0 7.0554 0 5.5ZM3.4375 2.2C3.4375 2.0906 3.48096 1.98568 3.55832 1.90832C3.63568 1.83096 3.7406 1.7875 3.85 1.7875H7.15C7.2594 1.7875 7.36432 1.83096 7.44168 1.90832C7.51904 1.98568 7.5625 2.0906 7.5625 2.2C7.5625 2.3094 7.51904 2.41432 7.44168 2.49168C7.36432 2.56904 7.2594 2.6125 7.15 2.6125H3.85C3.7406 2.6125 3.63568 2.56904 3.55832 2.49168C3.48096 2.41432 3.4375 2.3094 3.4375 2.2ZM2.75 3.7125C2.6406 3.7125 2.53568 3.75596 2.45832 3.83332C2.38096 3.91068 2.3375 4.0156 2.3375 4.125C2.3375 4.2344 2.38096 4.33932 2.45832 4.41668C2.53568 4.49404 2.6406 4.5375 2.75 4.5375H8.25C8.3594 4.5375 8.46432 4.49404 8.54168 4.41668C8.61904 4.33932 8.6625 4.2344 8.6625 4.125C8.6625 4.0156 8.61904 3.91068 8.54168 3.83332C8.46432 3.75596 8.3594 3.7125 8.25 3.7125H2.75Z" fill="black"/>
<path fill-rule="evenodd" clip-rule="evenodd" d="M5.97243 6.42132C5.80604 6.27933 5.59447 6.20132 5.37573 6.20132C5.15699 6.20132 4.94542 6.27933 4.77902 6.42132C4.6318 6.54676 4.44877 6.62257 4.25597 6.63796C4.03796 6.65531 3.83329 6.74982 3.6787 6.90451C3.52411 7.0592 3.42973 7.26393 3.41252 7.48194C3.39746 7.6744 3.32113 7.85717 3.19587 8.005C3.05417 8.17132 2.97634 8.38267 2.97634 8.60117C2.97634 8.81967 3.05417 9.03102 3.19587 9.19734C3.32167 9.34463 3.39746 9.52794 3.41252 9.72039C3.42975 9.93849 3.5242 10.1433 3.6789 10.298C3.8336 10.4527 4.0384 10.5472 4.2565 10.5644C4.44895 10.5794 4.63227 10.6552 4.77956 10.7805C4.94588 10.9222 5.15723 11 5.37573 11C5.59423 11 5.80558 10.9222 5.9719 10.7805C6.11911 10.655 6.30215 10.5792 6.49495 10.5638C6.71297 10.5466 6.9177 10.4523 7.07239 10.2977C7.22708 10.1431 7.32159 9.9384 7.33894 9.72039C7.35418 9.52765 7.4298 9.34462 7.55505 9.19734C7.69689 9.03098 7.77481 8.81952 7.77481 8.6009C7.77481 8.38228 7.69689 8.17082 7.55505 8.00446C7.4296 7.85725 7.35379 7.67421 7.3384 7.48141C7.32107 7.26349 7.22664 7.05888 7.07206 6.9043C6.91748 6.74972 6.71287 6.65529 6.49495 6.63796C6.30215 6.62257 6.11965 6.54676 5.97243 6.42132ZM6.45679 8.35819C6.49606 8.32219 6.52781 8.27877 6.55021 8.23044C6.5726 8.1821 6.58519 8.12981 6.58726 8.07657C6.58932 8.02334 6.58082 7.97023 6.56223 7.9203C6.54365 7.87038 6.51535 7.82463 6.47898 7.7857C6.44262 7.74678 6.39889 7.71544 6.35034 7.69351C6.30179 7.67159 6.24938 7.6595 6.19613 7.65794C6.14288 7.65639 6.08985 7.66541 6.0401 7.68447C5.99036 7.70353 5.94489 7.73227 5.90631 7.76901L5.03007 8.58719L4.84407 8.41409C4.76573 8.3423 4.66222 8.30434 4.55604 8.30845C4.44987 8.31257 4.3496 8.35844 4.27706 8.43608C4.20452 8.51372 4.16556 8.61687 4.16866 8.72308C4.17175 8.82929 4.21665 8.92999 4.2936 9.00327L4.75429 9.43333C4.82897 9.50309 4.92734 9.54189 5.02953 9.54189C5.13172 9.54189 5.2301 9.50309 5.30477 9.43333L6.45679 8.35819Z" fill="black"/>
</svg>
