<svg width="11" height="9" viewBox="0 0 11 9" fill="none" xmlns="http://www.w3.org/2000/svg">
<path d="M9.625 0.178558H1.375C1.01045 0.178948 0.660937 0.323939 0.403159 0.581717C0.145381 0.839495 0.000389966 1.18901 0 1.55356V7.44642C0.000389966 7.81097 0.145381 8.16048 0.403159 8.41826C0.660937 8.67604 1.01045 8.82103 1.375 8.82142H9.625C9.98955 8.82103 10.3391 8.67604 10.5968 8.41826C10.8546 8.16048 10.9996 7.81097 11 7.44642V1.55356C10.9996 1.18901 10.8546 0.839495 10.5968 0.581717C10.3391 0.323939 9.98955 0.178948 9.625 0.178558ZM9.27683 2.45296L5.74112 5.20296C5.67217 5.25655 5.58733 5.28565 5.5 5.28565C5.41267 5.28565 5.32783 5.25655 5.25888 5.20296L1.72317 2.45296C1.68163 2.42158 1.64674 2.38227 1.62052 2.3373C1.5943 2.29233 1.57729 2.24259 1.57046 2.19098C1.56363 2.13938 1.56713 2.08693 1.58074 2.03669C1.59436 1.98644 1.61783 1.93941 1.64978 1.89831C1.68173 1.85721 1.72153 1.82288 1.76687 1.7973C1.81221 1.77172 1.86218 1.7554 1.91387 1.7493C1.96557 1.7432 2.01796 1.74743 2.06801 1.76176C2.11806 1.77608 2.16476 1.8002 2.2054 1.83273L5.5 4.39514L8.7946 1.83273C8.87698 1.77052 8.98054 1.74323 9.08288 1.75678C9.18523 1.77032 9.27813 1.8236 9.34149 1.9051C9.40486 1.9866 9.4336 2.08976 9.4215 2.19229C9.4094 2.29481 9.35743 2.38845 9.27683 2.45296Z" fill="black"/>
</svg>
