<svg width="11" height="11" viewBox="0 0 11 11" fill="none" xmlns="http://www.w3.org/2000/svg">
<path d="M5.5 0.13324C4.77773 0.13324 4.06253 0.275501 3.39524 0.551902C2.72795 0.828303 2.12163 1.23343 1.61091 1.74415C0.579463 2.7756 0 4.17455 0 5.63324C0 8.06424 1.5785 10.1267 3.762 10.8582C4.037 10.9022 4.125 10.7317 4.125 10.5832V9.65374C2.6015 9.98374 2.277 8.91674 2.277 8.91674C2.024 8.27874 1.6665 8.10824 1.6665 8.10824C1.166 7.76724 1.705 7.77824 1.705 7.77824C2.255 7.81674 2.5465 8.34474 2.5465 8.34474C3.025 9.18074 3.8335 8.93324 4.147 8.80124C4.1965 8.44374 4.3395 8.20174 4.4935 8.06424C3.2725 7.92674 1.991 7.45374 1.991 5.35824C1.991 4.74774 2.2 4.25824 2.5575 3.86774C2.5025 3.73024 2.31 3.15824 2.6125 2.41574C2.6125 2.41574 3.0745 2.26724 4.125 2.97674C4.5595 2.85574 5.0325 2.79524 5.5 2.79524C5.9675 2.79524 6.4405 2.85574 6.875 2.97674C7.9255 2.26724 8.3875 2.41574 8.3875 2.41574C8.69 3.15824 8.4975 3.73024 8.4425 3.86774C8.8 4.25824 9.009 4.74774 9.009 5.35824C9.009 7.45924 7.722 7.92124 6.4955 8.05874C6.6935 8.22924 6.875 8.56474 6.875 9.07624V10.5832C6.875 10.7317 6.963 10.9077 7.2435 10.8582C9.427 10.1212 11 8.06424 11 5.63324C11 4.91097 10.8577 4.19577 10.5813 3.52848C10.3049 2.86119 9.89981 2.25487 9.38909 1.74415C8.87837 1.23343 8.27205 0.828303 7.60476 0.551902C6.93747 0.275501 6.22227 0.13324 5.5 0.13324Z" fill="black"/>
</svg>
