<svg width="11" height="9" viewBox="0 0 11 9" fill="none" xmlns="http://www.w3.org/2000/svg">
<path d="M6.6 5.05001H9.35V3.95001H6.6V5.05001ZM6.6 3.40001H9.35V2.30001H6.6V3.40001ZM1.65 6.70001H6.05V6.39751C6.05 5.98501 5.84833 5.65739 5.445 5.41466C5.04167 5.17192 4.51 5.05037 3.85 5.05001C3.19 5.04964 2.65833 5.17119 2.255 5.41466C1.85167 5.65812 1.65 5.98574 1.65 6.39751V6.70001ZM3.85 4.50001C4.1525 4.50001 4.41155 4.39239 4.62715 4.17716C4.84275 3.96192 4.95037 3.70287 4.95 3.40001C4.94963 3.09714 4.84202 2.83827 4.62715 2.62341C4.41228 2.40854 4.15323 2.30074 3.85 2.30001C3.54677 2.29927 3.2879 2.40707 3.0734 2.62341C2.8589 2.83974 2.7511 3.09861 2.75 3.40001C2.7489 3.70141 2.8567 3.96046 3.0734 4.17716C3.2901 4.39386 3.54897 4.50147 3.85 4.50001ZM1.1 8.90001C0.7975 8.90001 0.538633 8.79239 0.3234 8.57716C0.108167 8.36192 0.000366667 8.10287 0 7.80001V1.20001C0 0.897506 0.1078 0.638639 0.3234 0.423406C0.539 0.208173 0.797867 0.100373 1.1 0.100006H9.9C10.2025 0.100006 10.4615 0.207806 10.6771 0.423406C10.8927 0.639006 11.0004 0.897873 11 1.20001V7.80001C11 8.10251 10.8924 8.36156 10.6771 8.57716C10.4619 8.79276 10.2029 8.90037 9.9 8.90001H1.1Z" fill="black"/>
</svg>
