<svg width="17" height="15" viewBox="0 0 17 15" fill="none" xmlns="http://www.w3.org/2000/svg">
<path d="M10.3509 5.46428C10.7559 5.46428 11.1442 5.62513 11.4305 5.91146C11.7169 6.19779 11.8777 6.58613 11.8777 6.99106V11.2315C11.8777 12.2215 11.4844 13.1709 10.7844 13.871C10.0844 14.571 9.1349 14.9643 8.14489 14.9643C7.15489 14.9643 6.20543 14.571 5.50539 13.871C4.80535 13.1709 4.41207 12.2215 4.41207 11.2315V6.99106C4.41207 6.58613 4.57293 6.19779 4.85926 5.91146C5.14559 5.62513 5.53393 5.46428 5.93886 5.46428H10.3509ZM10.3509 6.48213H5.93886C5.80388 6.48213 5.67443 6.53575 5.57899 6.6312C5.48355 6.72664 5.42993 6.85609 5.42993 6.99106V11.2315C5.42993 11.9515 5.71597 12.6421 6.22512 13.1512C6.73428 13.6604 7.42484 13.9464 8.14489 13.9464C8.86495 13.9464 9.55551 13.6604 10.0647 13.1512C10.5738 12.6421 10.8599 11.9515 10.8599 11.2315V6.99106C10.8599 6.85609 10.8062 6.72664 10.7108 6.6312C10.6154 6.53575 10.4859 6.48213 10.3509 6.48213ZM1.52679 5.46428H4.34693C4.07442 5.74787 3.88297 6.09937 3.79254 6.48213H1.52679C1.39181 6.48213 1.26236 6.53575 1.16692 6.6312C1.07148 6.72664 1.01786 6.85609 1.01786 6.99106V10.5529C1.01759 10.8934 1.10276 11.2286 1.26556 11.5277C1.42836 11.8268 1.6636 12.0803 1.94973 12.2649C2.23586 12.4496 2.56374 12.5595 2.90335 12.5846C3.24296 12.6098 3.58345 12.5493 3.89364 12.4088C3.98389 12.7413 4.1135 13.0575 4.27636 13.3533C3.81146 13.5565 3.30326 13.6406 2.79769 13.5981C2.29212 13.5556 1.80511 13.3878 1.38067 13.1098C0.956231 12.8319 0.607736 12.4526 0.366679 12.0061C0.125622 11.5597 -0.000399962 11.0602 9.5359e-07 10.5529V6.99106C9.5359e-07 6.58613 0.160858 6.19779 0.447186 5.91146C0.733514 5.62513 1.12186 5.46428 1.52679 5.46428ZM14.7589 5.46428C15.1639 5.46428 15.5522 5.62513 15.8385 5.91146C16.1249 6.19779 16.2857 6.58613 16.2857 6.99106V10.5536C16.2859 11.0606 16.1599 11.5596 15.919 12.0058C15.6781 12.4519 15.3299 12.831 14.9058 13.1088C14.4817 13.3867 13.9951 13.5547 13.4899 13.5975C12.9847 13.6403 12.4768 13.5566 12.0121 13.354L12.0501 13.2848C12.1953 13.0093 12.3127 12.7168 12.3968 12.4101C12.7069 12.5496 13.0469 12.6093 13.3859 12.5836C13.7249 12.5579 14.0521 12.4477 14.3376 12.2631C14.623 12.0785 14.8578 11.8254 15.0203 11.5267C15.1828 11.2281 15.2679 10.8935 15.2679 10.5536V6.99106C15.2679 6.8562 15.2143 6.72686 15.119 6.63144C15.0237 6.53601 14.8945 6.48231 14.7596 6.48213H12.4979C12.4073 6.0993 12.2156 5.74779 11.9429 5.46428H14.7589ZM8.14286 0.0357056C8.45475 0.0357056 8.76358 0.0971367 9.05173 0.216492C9.33988 0.335847 9.6017 0.510788 9.82224 0.731327C10.0428 0.951866 10.2177 1.21368 10.3371 1.50183C10.4564 1.78998 10.5179 2.09882 10.5179 2.41071C10.5179 2.72259 10.4564 3.03143 10.3371 3.31958C10.2177 3.60773 10.0428 3.86954 9.82224 4.09008C9.6017 4.31062 9.33988 4.48556 9.05173 4.60492C8.76358 4.72427 8.45475 4.78571 8.14286 4.78571C7.51297 4.78571 6.90888 4.53548 6.46348 4.09008C6.01808 3.64469 5.76786 3.04059 5.76786 2.41071C5.76786 1.78082 6.01808 1.17673 6.46348 0.731327C6.90888 0.285928 7.51297 0.0357056 8.14286 0.0357056ZM13.5735 0.714277C13.8408 0.714277 14.1055 0.766932 14.3525 0.869237C14.5995 0.971541 14.8239 1.12149 15.0129 1.31052C15.202 1.49956 15.3519 1.72397 15.4542 1.97096C15.5565 2.21794 15.6092 2.48266 15.6092 2.74999C15.6092 3.01732 15.5565 3.28204 15.4542 3.52903C15.3519 3.77601 15.202 4.00043 15.0129 4.18946C14.8239 4.37849 14.5995 4.52844 14.3525 4.63075C14.1055 4.73305 13.8408 4.78571 13.5735 4.78571C13.0336 4.78571 12.5158 4.57123 12.134 4.18946C11.7522 3.80769 11.5378 3.2899 11.5378 2.74999C11.5378 2.21009 11.7522 1.69229 12.134 1.31052C12.5158 0.928753 13.0336 0.714277 13.5735 0.714277ZM2.71225 0.714277C2.97958 0.714277 3.2443 0.766932 3.49129 0.869237C3.73827 0.971541 3.96268 1.12149 4.15172 1.31052C4.34075 1.49956 4.4907 1.72397 4.59301 1.97096C4.69531 2.21794 4.74796 2.48266 4.74796 2.74999C4.74796 3.01732 4.69531 3.28204 4.59301 3.52903C4.4907 3.77601 4.34075 4.00043 4.15172 4.18946C3.96268 4.37849 3.73827 4.52844 3.49129 4.63075C3.2443 4.73305 2.97958 4.78571 2.71225 4.78571C2.17235 4.78571 1.65455 4.57123 1.27278 4.18946C0.891013 3.80769 0.676537 3.2899 0.676537 2.74999C0.676537 2.21009 0.891013 1.69229 1.27278 1.31052C1.65455 0.928753 2.17235 0.714277 2.71225 0.714277ZM8.14286 1.05356C7.78292 1.05356 7.43773 1.19655 7.18321 1.45106C6.9287 1.70557 6.78571 2.05077 6.78571 2.41071C6.78571 2.77064 6.9287 3.11584 7.18321 3.37035C7.43773 3.62486 7.78292 3.76785 8.14286 3.76785C8.50279 3.76785 8.84799 3.62486 9.1025 3.37035C9.35702 3.11584 9.5 2.77064 9.5 2.41071C9.5 2.05077 9.35702 1.70557 9.1025 1.45106C8.84799 1.19655 8.50279 1.05356 8.14286 1.05356ZM13.5735 1.73213C13.4398 1.73213 13.3074 1.75846 13.1839 1.80961C13.0605 1.86077 12.9482 1.93574 12.8537 2.03026C12.7592 2.12477 12.6842 2.23698 12.6331 2.36047C12.5819 2.48397 12.5556 2.61632 12.5556 2.74999C12.5556 2.88366 12.5819 3.01602 12.6331 3.13951C12.6842 3.263 12.7592 3.37521 12.8537 3.46972C12.9482 3.56424 13.0605 3.63922 13.1839 3.69037C13.3074 3.74152 13.4398 3.76785 13.5735 3.76785C13.8434 3.76785 14.1023 3.66061 14.2932 3.46972C14.4841 3.27884 14.5913 3.01994 14.5913 2.74999C14.5913 2.48004 14.4841 2.22114 14.2932 2.03026C14.1023 1.83937 13.8434 1.73213 13.5735 1.73213ZM2.71225 1.73213C2.57858 1.73213 2.44623 1.75846 2.32273 1.80961C2.19924 1.86077 2.08703 1.93574 1.99252 2.03026C1.898 2.12477 1.82303 2.23698 1.77187 2.36047C1.72072 2.48397 1.69439 2.61632 1.69439 2.74999C1.69439 2.88366 1.72072 3.01602 1.77187 3.13951C1.82303 3.263 1.898 3.37521 1.99252 3.46972C2.08703 3.56424 2.19924 3.63922 2.32273 3.69037C2.44623 3.74152 2.57858 3.76785 2.71225 3.76785C2.9822 3.76785 3.2411 3.66061 3.43198 3.46972C3.62287 3.27884 3.73011 3.01994 3.73011 2.74999C3.73011 2.48004 3.62287 2.22114 3.43198 2.03026C3.2411 1.83937 2.9822 1.73213 2.71225 1.73213Z" fill="black"/>
</svg>
