<svg width="11" height="14" viewBox="0 0 11 14" fill="none" xmlns="http://www.w3.org/2000/svg">
<path d="M5.5 0C4.04184 0.00172023 2.64389 0.581735 1.61282 1.61281C0.581738 2.64389 0.00172369 4.04184 3.45209e-06 5.5C-0.00133722 6.69154 0.387857 7.85069 1.108 8.8C1.108 8.8 1.258 8.9975 1.2825 9.026L5.5 14L9.7195 9.0235C9.7415 8.997 9.892 8.8 9.892 8.8L9.8925 8.7985C10.6122 7.84954 11.0012 6.69097 11 5.5C10.9983 4.04184 10.4183 2.64389 9.38719 1.61281C8.35611 0.581735 6.95816 0.00172023 5.5 0ZM5.5 7.5C5.10444 7.5 4.71776 7.3827 4.38886 7.16294C4.05996 6.94317 3.80362 6.63082 3.65224 6.26536C3.50087 5.89991 3.46126 5.49778 3.53843 5.10982C3.6156 4.72185 3.80608 4.36549 4.08579 4.08578C4.36549 3.80608 4.72186 3.6156 5.10982 3.53843C5.49778 3.46126 5.89991 3.50086 6.26537 3.65224C6.63082 3.80361 6.94318 4.05996 7.16294 4.38886C7.3827 4.71776 7.5 5.10443 7.5 5.5C7.49934 6.03023 7.28841 6.53855 6.91348 6.91348C6.53855 7.28841 6.03023 7.49933 5.5 7.5Z" fill="black"/>
</svg>
