<svg width="16" height="17" viewBox="0 0 16 17" fill="none" xmlns="http://www.w3.org/2000/svg">
<path d="M10.4468 11.1109L11.3573 7.82552L8.54683 5.88594L7.63642 9.17136L10.4468 11.1109ZM1.58017 14.2974L0.927042 13.9807C0.518014 13.8092 0.240931 13.5158 0.0957917 13.1004C-0.0493472 12.685 -0.0295555 12.2726 0.155167 11.863L1.58017 8.77552V14.2974ZM4.74683 16.0193C4.31142 16.0193 3.93881 15.8609 3.629 15.5443C3.31919 15.2276 3.16403 14.8516 3.1635 14.4161V9.68594L5.28121 15.5047C5.32079 15.5971 5.35378 15.6862 5.38017 15.7723C5.40656 15.8583 5.45274 15.9406 5.51871 16.0193H4.74683ZM8.82392 15.9203C8.41489 16.0655 8.00586 16.0457 7.59683 15.8609C7.18781 15.6762 6.91072 15.3793 6.76558 14.9703L3.26246 5.29219C3.11732 4.88316 3.13711 4.4773 3.32183 4.07461C3.50656 3.67191 3.80343 3.39826 4.21246 3.25365L10.1698 1.07657C10.5788 0.931427 10.9846 0.951218 11.3873 1.13594C11.79 1.32066 12.0637 1.61754 12.2083 2.02657L15.7312 11.7047C15.8763 12.1137 15.8566 12.5196 15.6718 12.9223C15.4871 13.325 15.1902 13.5986 14.7812 13.7432L8.82392 15.9203ZM8.26975 14.4359L14.2468 12.2589L10.7041 2.56094L4.74683 4.73802L8.26975 14.4359Z" fill="black"/>
</svg>
