<svg width="11" height="11" viewBox="0 0 11 11" fill="none" xmlns="http://www.w3.org/2000/svg">
<path d="M9.92222 7.50124L8.36686 7.32366C8.18398 7.30218 7.9986 7.32243 7.82467 7.38288C7.65073 7.44333 7.49276 7.54242 7.36262 7.6727L6.23591 8.79941C4.49758 7.91532 3.08465 6.50239 2.20056 4.76406L3.3334 3.63123C3.59671 3.36792 3.7253 3.00052 3.68243 2.62699L3.50485 1.08388C3.47014 0.785164 3.32678 0.509646 3.10208 0.309784C2.87737 0.109922 2.58702 -0.000326023 2.28629 3.13839e-05H1.22694C0.534989 3.13839e-05 -0.0406146 0.575634 0.00224943 1.26758C0.326792 6.497 4.5091 10.6732 9.73239 10.9977C10.4243 11.0406 10.9999 10.465 10.9999 9.77304V8.71368C11.0061 8.09521 10.5407 7.57472 9.92222 7.50124Z" fill="black"/>
</svg>
