<svg width="21" height="19" viewBox="0 0 21 19" fill="none" xmlns="http://www.w3.org/2000/svg">
<path d="M10 9.49469C10 8.74544 9.73493 8.10574 9.2048 7.57561C8.67466 7.04548 8.03497 6.78041 7.28571 6.78041C6.53646 6.78041 5.89676 7.04548 5.36663 7.57561C4.8365 8.10574 4.57143 8.74544 4.57143 9.49469C4.57143 10.2439 4.8365 10.8836 5.36663 11.4138C5.89676 11.9439 6.53646 12.209 7.28571 12.209C8.03497 12.209 8.67466 11.9439 9.2048 11.4138C9.73493 10.8836 10 10.2439 10 9.49469ZM18.1429 14.9233C18.1429 14.5557 18.0086 14.2376 17.74 13.969C17.4714 13.7004 17.1533 13.5661 16.7857 13.5661C16.4182 13.5661 16.1001 13.7004 15.8315 13.969C15.5629 14.2376 15.4286 14.5557 15.4286 14.9233C15.4286 15.2979 15.5611 15.6177 15.8262 15.8828C16.0912 16.1479 16.4111 16.2804 16.7857 16.2804C17.1603 16.2804 17.4802 16.1479 17.7453 15.8828C18.0103 15.6177 18.1429 15.2979 18.1429 14.9233ZM18.1429 4.06612C18.1429 3.69856 18.0086 3.38048 17.74 3.11188C17.4714 2.84328 17.1533 2.70898 16.7857 2.70898C16.4182 2.70898 16.1001 2.84328 15.8315 3.11188C15.5629 3.38048 15.4286 3.69856 15.4286 4.06612C15.4286 4.44075 15.5611 4.7606 15.8262 5.02567C16.0912 5.29073 16.4111 5.42327 16.7857 5.42327C17.1603 5.42327 17.4802 5.29073 17.7453 5.02567C18.0103 4.7606 18.1429 4.44075 18.1429 4.06612ZM14.0714 8.52985V10.4913C14.0714 10.562 14.0467 10.6309 13.9972 10.6981C13.9477 10.7652 13.8912 10.8024 13.8276 10.8094L12.1842 11.0639C12.1064 11.3113 11.9933 11.5799 11.8449 11.8697C12.0852 12.209 12.4033 12.6154 12.7991 13.089C12.8486 13.1668 12.8733 13.2374 12.8733 13.3011C12.8733 13.3859 12.8486 13.453 12.7991 13.5025C12.6365 13.7146 12.345 14.0309 11.9244 14.4514C11.5038 14.872 11.2264 15.0823 11.0921 15.0823C11.0143 15.0823 10.9401 15.0576 10.8694 15.0081L9.65011 14.0538C9.38858 14.1881 9.11644 14.2977 8.83371 14.3825C8.75595 15.1459 8.67466 15.6937 8.58984 16.0259C8.54036 16.1956 8.43434 16.2804 8.27176 16.2804H6.29966C6.22191 16.2804 6.15123 16.2539 6.08761 16.2009C6.024 16.1479 5.98865 16.086 5.98158 16.0153L5.73772 14.3931C5.4974 14.3224 5.23233 14.2129 4.94252 14.0644L3.69141 15.0081C3.64193 15.0576 3.57124 15.0823 3.47935 15.0823C3.4016 15.0823 3.32738 15.054 3.2567 14.9975C2.23884 14.0574 1.72991 13.4919 1.72991 13.3011C1.72991 13.2374 1.75465 13.1703 1.80413 13.0996C1.87481 13.0006 2.01972 12.8133 2.23884 12.5377C2.45796 12.262 2.62407 12.0464 2.73717 11.8909C2.57459 11.5799 2.45089 11.2901 2.36607 11.0215L0.754464 10.767C0.68378 10.7599 0.623698 10.7264 0.574219 10.6663C0.52474 10.6062 0.5 10.5373 0.5 10.4595V8.49804C0.5 8.42736 0.52474 8.35844 0.574219 8.29129C0.623698 8.22414 0.680246 8.18703 0.743862 8.17996L2.38728 7.9255C2.46503 7.6781 2.57812 7.4095 2.72656 7.11969C2.48624 6.78041 2.16815 6.37397 1.77232 5.90039C1.72284 5.82263 1.6981 5.75195 1.6981 5.68833C1.6981 5.60351 1.72284 5.53283 1.77232 5.47628C1.92783 5.26423 2.21763 4.94968 2.64174 4.53264C3.06585 4.1156 3.34505 3.90708 3.47935 3.90708C3.55711 3.90708 3.63132 3.93182 3.70201 3.9813L4.92132 4.93554C5.16164 4.80831 5.43378 4.69521 5.73772 4.59626C5.81548 3.83286 5.89676 3.28859 5.98158 2.96344C6.03106 2.7938 6.13709 2.70898 6.29966 2.70898H8.27176C8.34952 2.70898 8.4202 2.73549 8.48382 2.7885C8.54743 2.84151 8.58277 2.90336 8.58984 2.97405L8.83371 4.59626C9.07403 4.66694 9.3391 4.7765 9.62891 4.92494L10.88 3.9813C10.9366 3.93182 11.0073 3.90708 11.0921 3.90708C11.1698 3.90708 11.244 3.93536 11.3147 3.9919C12.3326 4.93201 12.8415 5.49748 12.8415 5.68833C12.8415 5.74488 12.8168 5.81203 12.7673 5.88978C12.6825 6.00288 12.534 6.19373 12.322 6.46233C12.1099 6.73093 11.9509 6.94298 11.8449 7.09849C12.0074 7.43777 12.1276 7.72758 12.2054 7.96791L13.817 8.21177C13.8876 8.22591 13.9477 8.26302 13.9972 8.3231C14.0467 8.38318 14.0714 8.4521 14.0714 8.52985ZM20.8571 14.1811V15.6655C20.8571 15.7785 20.3305 15.8881 19.2773 15.9941C19.1925 16.185 19.0865 16.3688 18.9593 16.5455C19.3198 17.3442 19.5 17.8319 19.5 18.0086C19.5 18.0369 19.4859 18.0617 19.4576 18.0829C18.5952 18.5847 18.157 18.8357 18.1429 18.8357C18.0863 18.8357 17.9237 18.6695 17.6551 18.3373C17.3865 18.0051 17.2028 17.7648 17.1038 17.6163C16.9624 17.6305 16.8564 17.6376 16.7857 17.6376C16.715 17.6376 16.609 17.6305 16.4676 17.6163C16.3687 17.7648 16.1849 18.0051 15.9163 18.3373C15.6477 18.6695 15.4851 18.8357 15.4286 18.8357C15.4144 18.8357 14.9762 18.5847 14.1138 18.0829C14.0856 18.0617 14.0714 18.0369 14.0714 18.0086C14.0714 17.8319 14.2517 17.3442 14.6122 16.5455C14.4849 16.3688 14.3789 16.185 14.2941 15.9941C13.2409 15.8881 12.7143 15.7785 12.7143 15.6655V14.1811C12.7143 14.068 13.2409 13.9584 14.2941 13.8524C14.386 13.6474 14.492 13.4636 14.6122 13.3011C14.2517 12.5023 14.0714 12.0146 14.0714 11.8379C14.0714 11.8096 14.0856 11.7849 14.1138 11.7637C14.1421 11.7495 14.2658 11.6788 14.4849 11.5516C14.7041 11.4244 14.9126 11.3042 15.1105 11.1911C15.3084 11.078 15.4144 11.0215 15.4286 11.0215C15.4851 11.0215 15.6477 11.1858 15.9163 11.5145C16.1849 11.8432 16.3687 12.0817 16.4676 12.2302C16.609 12.216 16.715 12.209 16.7857 12.209C16.8564 12.209 16.9624 12.216 17.1038 12.2302C17.4643 11.7283 17.7894 11.3325 18.0792 11.0427L18.1429 11.0215C18.1711 11.0215 18.6094 11.2689 19.4576 11.7637C19.4859 11.7849 19.5 11.8096 19.5 11.8379C19.5 12.0146 19.3198 12.5023 18.9593 13.3011C19.0794 13.4636 19.1855 13.6474 19.2773 13.8524C20.3305 13.9584 20.8571 14.068 20.8571 14.1811ZM20.8571 3.32394V4.80831C20.8571 4.92141 20.3305 5.03097 19.2773 5.13699C19.1925 5.32784 19.0865 5.51162 18.9593 5.68833C19.3198 6.48707 19.5 6.97479 19.5 7.1515C19.5 7.17978 19.4859 7.20452 19.4576 7.22572C18.5952 7.72758 18.157 7.97851 18.1429 7.97851C18.0863 7.97851 17.9237 7.8124 17.6551 7.48019C17.3865 7.14797 17.2028 6.90764 17.1038 6.7592C16.9624 6.77334 16.8564 6.78041 16.7857 6.78041C16.715 6.78041 16.609 6.77334 16.4676 6.7592C16.3687 6.90764 16.1849 7.14797 15.9163 7.48019C15.6477 7.8124 15.4851 7.97851 15.4286 7.97851C15.4144 7.97851 14.9762 7.72758 14.1138 7.22572C14.0856 7.20452 14.0714 7.17978 14.0714 7.1515C14.0714 6.97479 14.2517 6.48707 14.6122 5.68833C14.4849 5.51162 14.3789 5.32784 14.2941 5.13699C13.2409 5.03097 12.7143 4.92141 12.7143 4.80831V3.32394C12.7143 3.21084 13.2409 3.10128 14.2941 2.99525C14.386 2.79027 14.492 2.60649 14.6122 2.44391C14.2517 1.64518 14.0714 1.15745 14.0714 0.980743C14.0714 0.95247 14.0856 0.92773 14.1138 0.906525C14.1421 0.892388 14.2658 0.821703 14.4849 0.694471C14.7041 0.567239 14.9126 0.447075 15.1105 0.33398C15.3084 0.220885 15.4144 0.164337 15.4286 0.164337C15.4851 0.164337 15.6477 0.328679 15.9163 0.657362C16.1849 0.986045 16.3687 1.2246 16.4676 1.37304C16.609 1.35891 16.715 1.35184 16.7857 1.35184C16.8564 1.35184 16.9624 1.35891 17.1038 1.37304C17.4643 0.871182 17.7894 0.475349 18.0792 0.185543L18.1429 0.164337C18.1711 0.164337 18.6094 0.411733 19.4576 0.906525C19.4859 0.92773 19.5 0.95247 19.5 0.980743C19.5 1.15745 19.3198 1.64518 18.9593 2.44391C19.0794 2.60649 19.1855 2.79027 19.2773 2.99525C20.3305 3.10128 20.8571 3.21084 20.8571 3.32394Z" fill="black"/>
</svg>
