<svg width="19" height="17" viewBox="0 0 19 17" fill="none" xmlns="http://www.w3.org/2000/svg">
<path d="M2.375 0.583313V5.33331H0.791667V0.583313H2.375ZM0.791667 16.4166H2.375V11.6666H0.791667V16.4166ZM3.16667 8.49998C3.16667 8.18683 3.07381 7.8807 2.89983 7.62033C2.72585 7.35995 2.47857 7.15701 2.18925 7.03717C1.89993 6.91733 1.58158 6.88598 1.27444 6.94707C0.967304 7.00816 0.685181 7.15896 0.463748 7.38039C0.242315 7.60183 0.0915173 7.88395 0.030424 8.19109C-0.0306692 8.49822 0.000686028 8.81658 0.120525 9.1059C0.240364 9.39521 0.443303 9.64249 0.703681 9.81647C0.964059 9.99045 1.27018 10.0833 1.58333 10.0833C2.46208 10.0833 3.16667 9.37873 3.16667 8.49998ZM18.2083 3.74998V13.25C18.2083 14.1287 17.5038 14.8333 16.625 14.8333H7.125C6.70507 14.8333 6.30235 14.6665 6.00542 14.3696C5.70848 14.0726 5.54167 13.6699 5.54167 13.25V10.0833L3.95833 8.49998L5.54167 6.91665V3.74998C5.54167 3.33005 5.70848 2.92733 6.00542 2.63039C6.30235 2.33346 6.70507 2.16665 7.125 2.16665H16.625C17.5038 2.16665 18.2083 2.87123 18.2083 3.74998ZM14.25 9.29165H7.91667V10.875H14.25V9.29165ZM15.8333 6.12498H7.91667V7.70831H15.8333V6.12498Z" fill="black"/>
</svg>
