<svg width="16" height="17" viewBox="0 0 16 17" fill="none" xmlns="http://www.w3.org/2000/svg">
<path d="M11.3683 10.0833C11.4317 9.56084 11.4792 9.03834 11.4792 8.5C11.4792 7.96167 11.4317 7.43917 11.3683 6.91667H14.0442C14.1708 7.42334 14.25 7.95375 14.25 8.5C14.25 9.04625 14.1708 9.57667 14.0442 10.0833M9.96708 14.485C10.4421 13.6063 10.8063 12.6563 11.0596 11.6667H13.395C12.628 12.9874 11.4112 13.9878 9.96708 14.485ZM9.76917 10.0833H6.06417C5.985 9.56084 5.9375 9.03834 5.9375 8.5C5.9375 7.96167 5.985 7.43125 6.06417 6.91667H9.76917C9.84042 7.43125 9.89583 7.96167 9.89583 8.5C9.89583 9.03834 9.84042 9.56084 9.76917 10.0833ZM7.91667 14.8017C7.25958 13.8517 6.72917 12.7988 6.40458 11.6667H9.42875C9.10417 12.7988 8.57375 13.8517 7.91667 14.8017ZM4.75 5.33334H2.43833C3.19726 4.0089 4.41327 3.00682 5.85833 2.515C5.38333 3.39375 5.02708 4.34375 4.75 5.33334ZM2.43833 11.6667H4.75C5.02708 12.6563 5.38333 13.6063 5.85833 14.485C4.41613 13.9881 3.20173 12.9873 2.43833 11.6667ZM1.78917 10.0833C1.6625 9.57667 1.58333 9.04625 1.58333 8.5C1.58333 7.95375 1.6625 7.42334 1.78917 6.91667H4.465C4.40167 7.43917 4.35417 7.96167 4.35417 8.5C4.35417 9.03834 4.40167 9.56084 4.465 10.0833M7.91667 2.19042C8.57375 3.14042 9.10417 4.20125 9.42875 5.33334H6.40458C6.72917 4.20125 7.25958 3.14042 7.91667 2.19042ZM13.395 5.33334H11.0596C10.8114 4.35294 10.4446 3.4065 9.96708 2.515C11.4238 3.01375 12.635 4.01917 13.395 5.33334ZM7.91667 0.583336C3.53875 0.583336 0 4.14584 0 8.5C0 10.5996 0.834075 12.6133 2.31874 14.0979C3.05387 14.8331 3.9266 15.4162 4.88709 15.814C5.84758 16.2119 6.87704 16.4167 7.91667 16.4167C10.0163 16.4167 12.0299 15.5826 13.5146 14.0979C14.9993 12.6133 15.8333 10.5996 15.8333 8.5C15.8333 7.46037 15.6286 6.43092 15.2307 5.47043C14.8329 4.50993 14.2497 3.6372 13.5146 2.90207C12.7795 2.16694 11.9067 1.58381 10.9462 1.18596C9.98575 0.788107 8.9563 0.583336 7.91667 0.583336Z" fill="black"/>
</svg>
